# xmcd
#
# Track frame offsets:
#	150
#	18870
#	32935
#	54000
#	71425
#	90006
#	103171
#	120357
#	140058
#	154753
#
# Disc length: 2287 seconds
#
# Revision: 0
# Processed by: cddbd v1.5.2PL0 Copyright (c) Steve Scherf et al.
# Submitted via: EasyCDDAExtractor 11.0.0.1
#
DISCID=7208ed0a
DTITLE=ΜΠΡΑΚΟΥΛΙΑΣ ΠΑΝΑΓΙΩΤΗΣ
DYEAR=1900
DGENRE=
TTITLE0=Μπρακούλιας Παναγιώτης_01 Όσο και να θές
TTITLE1=Μπρακούλιας Παναγιώτης_02 Άπονη καρδιά
TTITLE2=Μπρακούλιας Παναγιώτης_03 Πειρασμός θανατηφόρος
TTITLE3=Μπρακούλιας Παναγιώτης_04 Αμφιβάλλω
TTITLE4=Μπρακούλιας Παναγιώτης_05 Θα ταβγάλω πέρα μόνος
TTITLE5=Μπρακούλιας Παναγιώτης_06 Άλλη μια βραδυά
TTITLE6=Μπρακούλιας Παναγιώτης_07 Δεν ζούμε χώρια
TTITLE7=Μπρακούλιας Παναγιώτης_08 Πως με θέλεις
TTITLE8=Μπρακούλιας Παναγιώτης_09 Σ' αναζητώ
TTITLE9=Μπρακούλιας Παναγιώτης_10 Ένα καράβι όνειρα
EXTD=
EXTT0=
EXTT1=
EXTT2=
EXTT3=
EXTT4=
EXTT5=
EXTT6=
EXTT7=
EXTT8=
EXTT9=
PLAYORDER=
